<svg xmlns="http://www.w3.org/2000/svg" width="2350" height="1000" viewBox="0 0 2350 1000" role="img" aria-label="Go 1.27 generic methods article cover">
  <defs>
    <linearGradient id="paper" x1="0" y1="0" x2="1" y2="1">
      <stop offset="0" stop-color="#fbfdff"/>
      <stop offset="0.55" stop-color="#edfaff"/>
      <stop offset="1" stop-color="#f5f2e9"/>
    </linearGradient>
    <linearGradient id="cyanInk" x1="0" y1="0" x2="1" y2="0">
      <stop offset="0" stop-color="#00add8"/>
      <stop offset="1" stop-color="#12c7b8"/>
    </linearGradient>
    <pattern id="grid" width="70" height="70" patternUnits="userSpaceOnUse">
      <path d="M 70 0 L 0 0 0 70" fill="none" stroke="#00add8" stroke-width="1.2" opacity="0.07"/>
    </pattern>
    <marker id="arrow" markerWidth="18" markerHeight="18" refX="15" refY="9" orient="auto" markerUnits="strokeWidth">
      <path d="M 2 2 L 16 9 L 2 16 Z" fill="#00add8"/>
    </marker>
  </defs>

  <rect width="2350" height="1000" fill="url(#paper)"/>
  <rect width="2350" height="1000" fill="url(#grid)"/>

  <g opacity="0.56">
    <path d="M -90 698 C 330 532, 590 780, 965 625 S 1588 396, 2442 538" fill="none" stroke="#00add8" stroke-width="32" stroke-linecap="round" opacity="0.14"/>
    <path d="M -72 764 C 365 618, 625 848, 996 707 S 1610 470, 2420 630" fill="none" stroke="#12c7b8" stroke-width="16" stroke-linecap="round" opacity="0.22"/>
  </g>

  <g transform="translate(1710 112)" opacity="0.94">
    <circle cx="270" cy="230" r="206" fill="#dff8fd"/>
    <circle cx="270" cy="230" r="142" fill="#00add8"/>
    <text x="270" y="276" text-anchor="middle" fill="#ffffff" font-family="Avenir Next, Helvetica Neue, PingFang SC, sans-serif" font-size="120" font-weight="900" letter-spacing="0">Go</text>
    <path d="M 58 178 H -50" stroke="#00add8" stroke-width="26" stroke-linecap="round"/>
    <path d="M 34 236 H -126" stroke="#00add8" stroke-width="26" stroke-linecap="round" opacity="0.78"/>
    <path d="M 64 294 H -42" stroke="#00add8" stroke-width="26" stroke-linecap="round" opacity="0.56"/>
  </g>

  <g transform="translate(170 178)">
    <text x="0" y="0" fill="#007d9c" font-family="Avenir Next, Helvetica Neue, PingFang SC, sans-serif" font-size="34" font-weight="800" letter-spacing="0">GO 1.27</text>
    <text x="0" y="152" fill="#0b2533" font-family="Avenir Next, Helvetica Neue, PingFang SC, sans-serif" font-size="132" font-weight="900" letter-spacing="0">Generic Methods</text>
    <text x="0" y="286" fill="#12313d" font-family="Avenir Next, Helvetica Neue, PingFang SC, sans-serif" font-size="68" font-weight="850" letter-spacing="0">泛型方法终于来了</text>
  </g>

  <g transform="translate(170 642)" opacity="0.92">
    <path d="M 0 0 H 360" stroke="url(#cyanInk)" stroke-width="12" stroke-linecap="round"/>
    <text x="0" y="88" fill="#007d9c" font-family="Consolas, SFMono-Regular, Menlo, monospace" font-size="42" letter-spacing="0">func (s Stream[T]) Map[U any](...)</text>
  </g>

  <g transform="translate(2020 794)" opacity="0.42">
    <circle cx="0" cy="0" r="64" fill="#f6b73c"/>
  </g>
  <g transform="translate(1240 180)" opacity="0.28">
    <circle cx="0" cy="0" r="54" fill="#12c7b8"/>
  </g>
</svg>
